<svg width="111" height="160" viewBox="0 0 111 160" fill="none" xmlns="http://www.w3.org/2000/svg">
<path d="M11.648 138.232C9.6 138.232 8.10667 137.763 7.168 136.824C6.22933 135.885 5.76 134.392 5.76 132.344V49.4C5.76 48.2907 5.888 47.352 6.144 46.584C6.48533 45.816 6.95467 45.176 7.552 44.664L24.064 30.712C24.4907 30.3707 25.0453 30.1147 25.728 29.944C26.496 29.688 27.3067 29.56 28.16 29.56H68.992C77.8667 29.56 84.3947 31.3093 88.576 34.808C92.7573 38.2213 94.848 43.4267 94.848 50.424V56.568C94.848 59.5547 94.4213 62.1147 93.568 64.248C92.8 66.3813 91.6053 68.088 89.984 69.368L89.6 69.624C94.208 70.648 97.664 72.8667 99.968 76.28C102.272 79.608 103.424 84.2587 103.424 90.232V102.008C103.424 105.848 102.869 109.176 101.76 111.992C100.651 114.723 98.9867 117.027 96.768 118.904L80.256 132.856C78.1227 134.648 75.4347 135.971 72.192 136.824C68.9493 137.763 65.152 138.232 60.8 138.232H11.648ZM77.312 123C85.76 123 91.9893 121.293 96 117.88C100.096 114.467 102.144 109.176 102.144 102.008V90.232C102.144 84.0027 100.821 79.2667 98.176 76.024C95.5307 72.7813 91.4773 70.904 86.016 70.392C88.576 69.2827 90.4533 67.6187 91.648 65.4C92.928 63.096 93.568 60.152 93.568 56.568V50.424C93.568 43.768 91.5627 38.8613 87.552 35.704C83.5413 32.4613 77.3547 30.84 68.992 30.84H28.16C26.5387 30.84 25.344 31.224 24.576 31.992C23.8933 32.6747 23.552 33.8267 23.552 35.448V118.392C23.552 120.013 23.8933 121.208 24.576 121.976C25.344 122.659 26.5387 123 28.16 123H77.312ZM72.192 111.48H37.76V42.36H63.744C67.2427 42.36 70.1013 42.744 72.32 43.512C74.5387 44.1947 76.2453 45.176 77.44 46.456C78.6347 47.6507 79.4453 49.0587 79.872 50.68C80.2987 52.3013 80.512 54.0507 80.512 55.928V64.12C80.512 66.68 80.0427 69.0267 79.104 71.16C78.2507 73.2933 75.9893 74.8293 72.32 75.768C75.8187 75.768 78.6773 76.152 80.896 76.92C83.1147 77.6027 84.8213 78.6267 86.016 79.992C87.2107 81.272 87.9787 82.808 88.32 84.6C88.7467 86.392 88.96 88.3547 88.96 90.488V98.68C88.96 100.557 88.7467 102.307 88.32 103.928C87.8933 105.464 87.0827 106.787 85.888 107.896C84.7787 109.005 83.1147 109.901 80.896 110.584C78.6773 111.181 75.776 111.48 72.192 111.48ZM63.744 43.64H39.04V75.768H63.744C67.2427 75.768 70.016 75.4693 72.064 74.872C74.112 74.1893 75.648 73.336 76.672 72.312C77.7813 71.2027 78.464 69.9653 78.72 68.6C79.0613 67.1493 79.232 65.656 79.232 64.12V55.928C79.232 52.5147 78.2507 49.6133 76.288 47.224C74.3253 44.8347 70.144 43.64 63.744 43.64ZM52.352 52.6H63.232C64.8533 52.6 66.048 53.0267 66.816 53.88C67.6693 54.7333 68.096 56.0133 68.096 57.72V61.304C68.096 63.0107 67.6693 64.2907 66.816 65.144C66.048 65.9973 64.8533 66.424 63.232 66.424H52.352V52.6ZM72.32 77.048H39.04V110.2H72.192C78.592 110.2 82.7733 109.176 84.736 107.128C86.6987 104.995 87.68 102.179 87.68 98.68V90.488C87.68 86.648 86.6987 83.448 84.736 80.888C82.8587 78.328 78.72 77.048 72.32 77.048ZM52.352 86.136H68.992C70.6133 86.136 71.808 86.5627 72.576 87.416C73.4293 88.184 73.856 89.4213 73.856 91.128V96.12C73.856 97.8267 73.4293 99.1067 72.576 99.96C71.808 100.813 70.6133 101.24 68.992 101.24H52.352V86.136Z" fill="white"/>
</svg>
