<svg width="419" height="160" viewBox="0 0 419 160" fill="none" xmlns="http://www.w3.org/2000/svg">
<path d="M11.648 138.232C9.6 138.232 8.10667 137.763 7.168 136.824C6.22933 135.885 5.76 134.392 5.76 132.344V49.4C5.76 48.2907 5.888 47.352 6.144 46.584C6.48533 45.816 6.95467 45.176 7.552 44.664L24.064 30.712C24.4907 30.3707 25.0453 30.1147 25.728 29.944C26.496 29.688 27.3067 29.56 28.16 29.56H68.992C77.8667 29.56 84.3947 31.3093 88.576 34.808C92.7573 38.2213 94.848 43.4267 94.848 50.424V56.568C94.848 59.5547 94.4213 62.1147 93.568 64.248C92.8 66.3813 91.6053 68.088 89.984 69.368L89.6 69.624C94.208 70.648 97.664 72.8667 99.968 76.28C102.272 79.608 103.424 84.2587 103.424 90.232V102.008C103.424 105.848 102.869 109.176 101.76 111.992C100.651 114.723 98.9867 117.027 96.768 118.904L80.256 132.856C78.1227 134.648 75.4347 135.971 72.192 136.824C68.9493 137.763 65.152 138.232 60.8 138.232H11.648ZM77.312 123C85.76 123 91.9893 121.293 96 117.88C100.096 114.467 102.144 109.176 102.144 102.008V90.232C102.144 84.0027 100.821 79.2667 98.176 76.024C95.5307 72.7813 91.4773 70.904 86.016 70.392C88.576 69.2827 90.4533 67.6187 91.648 65.4C92.928 63.096 93.568 60.152 93.568 56.568V50.424C93.568 43.768 91.5627 38.8613 87.552 35.704C83.5413 32.4613 77.3547 30.84 68.992 30.84H28.16C26.5387 30.84 25.344 31.224 24.576 31.992C23.8933 32.6747 23.552 33.8267 23.552 35.448V118.392C23.552 120.013 23.8933 121.208 24.576 121.976C25.344 122.659 26.5387 123 28.16 123H77.312ZM72.192 111.48H37.76V42.36H63.744C67.2427 42.36 70.1013 42.744 72.32 43.512C74.5387 44.1947 76.2453 45.176 77.44 46.456C78.6347 47.6507 79.4453 49.0587 79.872 50.68C80.2987 52.3013 80.512 54.0507 80.512 55.928V64.12C80.512 66.68 80.0427 69.0267 79.104 71.16C78.2507 73.2933 75.9893 74.8293 72.32 75.768C75.8187 75.768 78.6773 76.152 80.896 76.92C83.1147 77.6027 84.8213 78.6267 86.016 79.992C87.2107 81.272 87.9787 82.808 88.32 84.6C88.7467 86.392 88.96 88.3547 88.96 90.488V98.68C88.96 100.557 88.7467 102.307 88.32 103.928C87.8933 105.464 87.0827 106.787 85.888 107.896C84.7787 109.005 83.1147 109.901 80.896 110.584C78.6773 111.181 75.776 111.48 72.192 111.48ZM63.744 43.64H39.04V75.768H63.744C67.2427 75.768 70.016 75.4693 72.064 74.872C74.112 74.1893 75.648 73.336 76.672 72.312C77.7813 71.2027 78.464 69.9653 78.72 68.6C79.0613 67.1493 79.232 65.656 79.232 64.12V55.928C79.232 52.5147 78.2507 49.6133 76.288 47.224C74.3253 44.8347 70.144 43.64 63.744 43.64ZM52.352 52.6H63.232C64.8533 52.6 66.048 53.0267 66.816 53.88C67.6693 54.7333 68.096 56.0133 68.096 57.72V61.304C68.096 63.0107 67.6693 64.2907 66.816 65.144C66.048 65.9973 64.8533 66.424 63.232 66.424H52.352V52.6ZM72.32 77.048H39.04V110.2H72.192C78.592 110.2 82.7733 109.176 84.736 107.128C86.6987 104.995 87.68 102.179 87.68 98.68V90.488C87.68 86.648 86.6987 83.448 84.736 80.888C82.8587 78.328 78.72 77.048 72.32 77.048ZM52.352 86.136H68.992C70.6133 86.136 71.808 86.5627 72.576 87.416C73.4293 88.184 73.856 89.4213 73.856 91.128V96.12C73.856 97.8267 73.4293 99.1067 72.576 99.96C71.808 100.813 70.6133 101.24 68.992 101.24H52.352V86.136ZM184.345 132.088C181.358 134.648 177.177 136.611 171.801 137.976C166.425 139.427 159.513 140.152 151.065 140.152C142.702 140.152 135.833 139.256 130.457 137.464C125.166 135.757 120.985 133.453 117.913 130.552C114.926 127.651 112.836 124.323 111.641 120.568C110.532 116.813 109.977 112.931 109.977 108.92V69.112C109.977 65.1867 110.532 61.56 111.641 58.232C112.75 54.8187 114.756 51.9173 117.657 49.528L134.297 35.704C137.284 33.144 141.422 31.1813 146.713 29.816C152.089 28.3653 159.044 27.64 167.577 27.64C175.94 27.64 182.766 28.3227 188.057 29.688C193.433 31.0533 197.614 32.9733 200.601 35.448C203.673 37.8373 205.764 40.7387 206.873 44.152C207.982 47.48 208.537 51.1493 208.537 55.16V98.808C208.537 102.733 207.982 106.36 206.873 109.688C205.764 113.016 203.758 115.875 200.857 118.264L184.345 132.088ZM207.257 98.808V55.16C207.257 51.2347 206.66 47.6933 205.465 44.536C204.356 41.2933 202.308 38.52 199.321 36.216C196.42 33.912 192.366 32.12 187.161 30.84C182.041 29.56 175.513 28.92 167.577 28.92C159.641 28.92 153.07 29.56 147.865 30.84C142.66 32.12 138.564 33.912 135.577 36.216C132.676 38.52 130.628 41.2933 129.433 44.536C128.324 47.6933 127.769 51.2347 127.769 55.16V98.808C127.769 102.733 128.324 106.317 129.433 109.56C130.628 112.717 132.676 115.448 135.577 117.752C138.564 119.971 142.66 121.72 147.865 123C153.07 124.28 159.641 124.92 167.577 124.92C175.513 124.92 182.041 124.28 187.161 123C192.366 121.72 196.42 119.971 199.321 117.752C202.308 115.448 204.356 112.717 205.465 109.56C206.66 106.317 207.257 102.733 207.257 98.808ZM193.305 95.864C193.305 100.984 191.47 105.165 187.801 108.408C184.132 111.565 177.305 113.144 167.321 113.144C157.337 113.144 150.553 111.565 146.969 108.408C143.385 105.165 141.593 100.984 141.593 95.864V58.104C141.593 52.984 143.385 48.8453 146.969 45.688C150.553 42.4453 157.337 40.824 167.321 40.824C177.305 40.824 184.132 42.4453 187.801 45.688C191.47 48.8453 193.305 52.984 193.305 58.104V95.864ZM142.873 95.864C142.873 100.643 144.58 104.525 147.993 107.512C151.406 110.413 157.849 111.864 167.321 111.864C176.793 111.864 183.278 110.413 186.777 107.512C190.276 104.525 192.025 100.643 192.025 95.864V58.104C192.025 53.3253 190.276 49.4853 186.777 46.584C183.278 43.5973 176.793 42.104 167.321 42.104C157.849 42.104 151.406 43.5973 147.993 46.584C144.58 49.4853 142.873 53.3253 142.873 58.104V95.864ZM156.825 94.2V59.768C156.825 58.1467 157.465 56.7813 158.745 55.672C160.025 54.4773 162.969 53.88 167.577 53.88C172.185 53.88 175.129 54.4773 176.409 55.672C177.689 56.7813 178.329 58.1467 178.329 59.768V94.2C178.329 95.9067 177.689 97.3573 176.409 98.552C175.129 99.6613 172.185 100.216 167.577 100.216C162.969 100.216 160.025 99.6613 158.745 98.552C157.465 97.3573 156.825 95.9067 156.825 94.2ZM158.105 94.2C158.105 95.0533 158.276 95.8213 158.617 96.504C158.958 97.1013 159.598 97.6133 160.537 98.04V73.72C160.537 72.8667 160.366 72.1413 160.025 71.544C159.684 70.8613 159.044 70.3493 158.105 70.008V94.2ZM266.51 138.232H245.774C243.641 138.232 242.105 137.763 241.166 136.824C240.313 135.885 239.886 134.392 239.886 132.344V116.344L220.558 90.488C218.51 87.7573 217.145 85.368 216.462 83.32C215.779 81.272 215.438 78.1573 215.438 73.976V49.4C215.438 48.2907 215.566 47.352 215.822 46.584C216.163 45.816 216.633 45.176 217.23 44.664L233.742 30.712C234.169 30.3707 234.723 30.1147 235.406 29.944C236.174 29.688 236.985 29.56 237.838 29.56H257.55C259.598 29.56 261.091 30.0293 262.03 30.968C262.969 31.9067 263.438 33.4 263.438 35.448V56.44C263.438 57.208 263.481 57.976 263.566 58.744C263.651 59.512 263.907 60.3227 264.334 61.176L265.87 63.352V49.4C265.87 48.2907 265.998 47.352 266.254 46.584C266.595 45.816 267.065 45.176 267.662 44.664L284.174 30.712C284.601 30.3707 285.155 30.1147 285.838 29.944C286.606 29.688 287.417 29.56 288.27 29.56H307.342C309.39 29.56 310.883 30.0293 311.822 30.968C312.761 31.9067 313.23 33.4 313.23 35.448V60.024C313.23 64.2053 312.889 67.32 312.206 69.368C311.523 71.416 310.158 73.8053 308.11 76.536L288.91 102.52V118.392C288.91 119.501 288.739 120.44 288.398 121.208C288.142 121.976 287.715 122.616 287.118 123.128L270.478 136.952C270.137 137.293 269.582 137.592 268.814 137.848C268.131 138.104 267.363 138.232 266.51 138.232ZM283.022 123C284.643 123 285.795 122.659 286.478 121.976C287.246 121.208 287.63 120.013 287.63 118.392V102.136L307.086 75.768C308.963 73.1227 310.243 70.8187 310.926 68.856C311.609 66.8933 311.95 63.9493 311.95 60.024V35.448C311.95 33.8267 311.566 32.6747 310.798 31.992C310.115 31.224 308.963 30.84 307.342 30.84H288.27C286.649 30.84 285.454 31.224 284.686 31.992C284.003 32.6747 283.662 33.8267 283.662 35.448V56.44C283.662 57.2933 283.619 58.1893 283.534 59.128C283.449 60.0667 283.107 60.9627 282.51 61.816L276.622 71.032C276.195 71.8 275.726 72.3547 275.214 72.696C274.787 73.0373 274.233 73.208 273.55 73.208H272.27C271.587 73.208 270.99 73.0373 270.478 72.696C270.051 72.3547 269.625 71.8 269.198 71.032L263.31 61.816C262.713 60.9627 262.371 60.0667 262.286 59.128C262.201 58.1893 262.158 57.2933 262.158 56.44V35.448C262.158 33.8267 261.774 32.6747 261.006 31.992C260.323 31.224 259.171 30.84 257.55 30.84H237.838C236.217 30.84 235.022 31.224 234.254 31.992C233.571 32.6747 233.23 33.8267 233.23 35.448V60.024C233.23 63.9493 233.529 66.8933 234.126 68.856C234.809 70.8187 236.131 73.1227 238.094 75.768L257.678 102.008V118.392C257.678 120.013 258.019 121.208 258.702 121.976C259.47 122.659 260.665 123 262.286 123H283.022ZM274.19 89.592H273.294V111.48H272.014V89.592H270.734C268.857 89.592 267.15 89.1653 265.614 88.312C264.163 87.4587 262.755 86.0933 261.39 84.216L248.974 66.936C248.035 65.656 247.481 64.1627 247.31 62.456C247.139 60.7493 247.054 58.9573 247.054 57.08V42.36H248.334V57.08C248.334 58.872 248.419 60.5787 248.59 62.2C248.761 63.736 249.273 65.144 250.126 66.424L262.542 83.704C263.651 85.4107 264.931 86.6053 266.382 87.288C267.833 87.9707 269.283 88.312 270.734 88.312H274.19C275.811 88.312 277.262 87.9707 278.542 87.288C279.907 86.52 281.23 85.3253 282.51 83.704L295.31 66.424C296.163 65.3147 296.675 63.9493 296.846 62.328C297.017 60.6213 297.102 58.872 297.102 57.08V42.36H298.382V57.08C298.382 58.9573 298.297 60.7493 298.126 62.456C298.041 64.0773 297.486 65.5707 296.462 66.936L283.662 84.216C282.297 86.0933 280.846 87.4587 279.31 88.312C277.859 89.1653 276.153 89.592 274.19 89.592ZM325.094 138.232C323.046 138.232 321.553 137.763 320.614 136.824C319.675 135.885 319.206 134.392 319.206 132.344V117.368C319.206 116.259 319.334 115.32 319.59 114.552C319.931 113.784 320.401 113.144 320.998 112.632L333.798 101.88C329.275 100.515 325.691 98.2107 323.046 94.968C320.486 91.64 319.206 86.904 319.206 80.76V67.32C319.206 63.48 319.846 60.0667 321.126 57.08C322.406 54.0933 324.241 51.576 326.63 49.528L343.27 35.576C345.574 33.6987 348.433 32.248 351.846 31.224C355.259 30.1147 359.142 29.56 363.494 29.56H399.334C401.382 29.56 402.875 30.0293 403.814 30.968C404.753 31.9067 405.222 33.4 405.222 35.448V50.68C405.222 51.7893 405.051 52.728 404.71 53.496C404.454 54.264 404.027 54.904 403.43 55.416L391.91 65.016C397.286 66.2107 401.595 68.472 404.838 71.8C408.166 75.0427 409.83 80.12 409.83 87.032V100.472C409.83 104.312 409.19 107.725 407.91 110.712C406.63 113.699 404.753 116.216 402.278 118.264L385.766 132.088C383.377 134.051 380.475 135.544 377.062 136.568C373.649 137.677 369.809 138.232 365.542 138.232H325.094ZM382.054 123C390.246 123 396.689 121.08 401.382 117.24C406.161 113.315 408.55 107.725 408.55 100.472V87.032C408.55 79.864 406.715 74.744 403.046 71.672C399.377 68.6 394.555 66.6373 388.582 65.784L369.51 63.224C368.401 63.1387 367.547 62.712 366.95 61.944C366.353 61.176 366.054 60.2373 366.054 59.128C366.054 58.0187 366.353 57.1227 366.95 56.44C367.547 55.672 368.401 55.288 369.51 55.288H399.334C400.955 55.288 402.107 54.9467 402.79 54.264C403.558 53.496 403.942 52.3013 403.942 50.68V35.448C403.942 33.8267 403.558 32.6747 402.79 31.992C402.107 31.224 400.955 30.84 399.334 30.84H363.494C355.217 30.84 348.731 32.8027 344.038 36.728C339.345 40.568 336.998 46.1147 336.998 53.368V66.808C336.998 73.976 338.79 79.096 342.374 82.168C346.043 85.24 350.865 87.2027 356.838 88.056L376.038 90.744C377.147 90.8293 377.958 91.2133 378.47 91.896C379.067 92.5787 379.366 93.6453 379.366 95.096C379.366 96.12 379.067 97.016 378.47 97.784C377.958 98.4667 377.147 98.808 376.038 98.808H341.606C339.985 98.808 338.79 99.192 338.022 99.96C337.339 100.643 336.998 101.795 336.998 103.416V118.392C336.998 120.013 337.339 121.208 338.022 121.976C338.79 122.659 339.985 123 341.606 123H382.054ZM392.422 42.36V43.64H364.006C360.422 43.64 357.563 44.6213 355.43 46.584C353.297 48.5467 352.23 51.0213 352.23 54.008V64.504C352.23 67.4907 352.827 69.5813 354.022 70.776C355.217 71.9707 356.795 72.7387 358.758 73.08L385.766 78.584C388.326 79.096 390.417 80.2053 392.038 81.912C393.745 83.6187 394.598 86.6907 394.598 91.128V98.552C394.598 102.307 393.318 105.421 390.758 107.896C388.198 110.285 384.742 111.48 380.39 111.48H348.518V110.2H380.39C384.315 110.2 387.43 109.133 389.734 107C392.123 104.781 393.318 101.965 393.318 98.552V91.128C393.318 87.1173 392.593 84.3867 391.142 82.936C389.777 81.4 387.899 80.376 385.51 79.864L358.502 74.36C356.283 73.9333 354.449 73.08 352.998 71.8C351.633 70.4347 350.95 68.0027 350.95 64.504V54.008C350.95 50.5947 352.145 47.8213 354.534 45.688C356.923 43.4693 360.081 42.36 364.006 42.36H392.422Z" fill="white"/>
</svg>
