<svg width="503" height="263" viewBox="0 0 503 263" fill="none" xmlns="http://www.w3.org/2000/svg">
<path d="M25.28 69.616H14.912C13.888 69.616 13.1413 69.3813 12.672 68.912C12.2027 68.4427 11.968 67.696 11.968 66.672V35.888H3.2C2.176 35.888 1.42933 35.6533 0.96 35.184C0.490667 34.7147 0.256 33.968 0.256 32.944V25.2C0.256 24.6453 0.32 24.176 0.448 23.792C0.618667 23.408 0.853333 23.088 1.152 22.832L9.408 15.856C9.62133 15.6853 9.89867 15.5573 10.24 15.472C10.624 15.344 11.0293 15.28 11.456 15.28H45.248C46.272 15.28 47.0187 15.5147 47.488 15.984C47.9573 16.4533 48.192 17.2 48.192 18.224V25.968C48.192 26.5227 48.1067 26.992 47.936 27.376C47.808 27.76 47.5947 28.08 47.296 28.336L38.976 35.248C38.8053 35.4187 38.528 35.568 38.144 35.696C37.8027 35.824 37.4187 35.888 36.992 35.888H36.48V59.696C36.48 60.2507 36.3947 60.72 36.224 61.104C36.096 61.488 35.8827 61.808 35.584 62.064L27.264 68.976C27.0933 69.1467 26.816 69.296 26.432 69.424C26.0907 69.552 25.7067 69.616 25.28 69.616ZM33.536 62C34.3467 62 34.9227 61.8293 35.264 61.488C35.648 61.104 35.84 60.5067 35.84 59.696V28.272H45.248C46.0587 28.272 46.6347 28.1013 46.976 27.76C47.36 27.376 47.552 26.7787 47.552 25.968V18.224C47.552 17.4133 47.36 16.8373 46.976 16.496C46.6347 16.112 46.0587 15.92 45.248 15.92H11.456C10.6453 15.92 10.048 16.112 9.664 16.496C9.32267 16.8373 9.152 17.4133 9.152 18.224V25.968C9.152 26.7787 9.32267 27.376 9.664 27.76C10.048 28.1013 10.6453 28.272 11.456 28.272H20.864V59.696C20.864 60.5067 21.0347 61.104 21.376 61.488C21.76 61.8293 22.3573 62 23.168 62H33.536ZM28.032 56.24V22.32H14.912V21.68H41.792V22.32H28.672V56.24H28.032ZM67.063 56.24V21.68H67.703V38.64H92.279V21.68H92.919V56.24H92.279V39.28H67.703V56.24H67.063ZM72.375 62C73.1857 62 73.7617 61.8293 74.103 61.488C74.487 61.104 74.679 60.5067 74.679 59.696V45.488H85.367V59.696C85.367 60.5067 85.5377 61.104 85.879 61.488C86.263 61.8293 86.8603 62 87.671 62H97.591C98.4017 62 98.9777 61.8293 99.319 61.488C99.703 61.104 99.895 60.5067 99.895 59.696V18.224C99.895 17.4133 99.703 16.8373 99.319 16.496C98.9777 16.112 98.4017 15.92 97.591 15.92H87.671C86.8603 15.92 86.263 16.112 85.879 16.496C85.5377 16.8373 85.367 17.4133 85.367 18.224V32.112H74.679V18.224C74.679 17.4133 74.487 16.8373 74.103 16.496C73.7617 16.112 73.1857 15.92 72.375 15.92H62.455C61.6443 15.92 61.047 16.112 60.663 16.496C60.3217 16.8373 60.151 17.4133 60.151 18.224V59.696C60.151 60.5067 60.3217 61.104 60.663 61.488C61.047 61.8293 61.6443 62 62.455 62H72.375ZM74.423 62.064L66.103 68.976C65.9323 69.1467 65.655 69.296 65.271 69.424C64.9297 69.552 64.5457 69.616 64.119 69.616H54.199C53.175 69.616 52.4283 69.3813 51.959 68.912C51.4897 68.4427 51.255 67.696 51.255 66.672V25.2C51.255 24.6453 51.319 24.176 51.447 23.792C51.6177 23.408 51.8523 23.088 52.151 22.832L60.407 15.856C60.6203 15.6853 60.8977 15.5573 61.239 15.472C61.623 15.344 62.0283 15.28 62.455 15.28H72.375C73.399 15.28 74.1457 15.5147 74.615 15.984C75.0843 16.4533 75.319 17.2 75.319 18.224V31.472H76.471V25.2C76.471 24.6453 76.535 24.176 76.663 23.792C76.8337 23.408 77.0683 23.088 77.367 22.832L85.623 15.856C85.8363 15.6853 86.1137 15.5573 86.455 15.472C86.839 15.344 87.2443 15.28 87.671 15.28H97.591C98.615 15.28 99.3617 15.5147 99.831 15.984C100.3 16.4533 100.535 17.2 100.535 18.224V59.696C100.535 60.2507 100.45 60.72 100.279 61.104C100.151 61.488 99.9377 61.808 99.639 62.064L91.319 68.976C91.1483 69.1467 90.871 69.296 90.487 69.424C90.1457 69.552 89.7617 69.616 89.335 69.616H79.415C78.391 69.616 77.6443 69.3813 77.175 68.912C76.7057 68.4427 76.471 67.696 76.471 66.672V53.104H75.319V59.696C75.319 60.2507 75.2337 60.72 75.063 61.104C74.935 61.488 74.7217 61.808 74.423 62.064ZM138.895 69.616H109.199C108.175 69.616 107.428 69.3813 106.959 68.912C106.49 68.4427 106.255 67.696 106.255 66.672V25.2C106.255 24.6453 106.319 24.176 106.447 23.792C106.618 23.408 106.852 23.088 107.151 22.832L115.407 15.856C115.62 15.6853 115.898 15.5573 116.239 15.472C116.623 15.344 117.028 15.28 117.455 15.28H147.151C148.175 15.28 148.922 15.5147 149.391 15.984C149.86 16.4533 150.095 17.2 150.095 18.224V25.712C150.095 26.2667 150.01 26.736 149.839 27.12C149.711 27.504 149.498 27.824 149.199 28.08L143.695 32.624C144.122 32.8373 144.42 33.1573 144.591 33.584C144.804 34.0107 144.911 34.5653 144.911 35.248V42.096C144.911 42.6507 144.826 43.12 144.655 43.504C144.527 43.888 144.314 44.208 144.015 44.464L138.319 49.264H147.151C148.175 49.264 148.922 49.4987 149.391 49.968C149.86 50.4373 150.095 51.184 150.095 52.208V59.696C150.095 60.2507 150.01 60.72 149.839 61.104C149.711 61.488 149.498 61.808 149.199 62.064L140.879 68.976C140.708 69.1467 140.431 69.296 140.047 69.424C139.706 69.552 139.322 69.616 138.895 69.616ZM147.151 62C147.962 62 148.538 61.8293 148.879 61.488C149.263 61.104 149.455 60.5067 149.455 59.696V52.208C149.455 51.3973 149.263 50.8213 148.879 50.48C148.538 50.096 147.962 49.904 147.151 49.904H129.487V44.4H141.967C142.778 44.4 143.354 44.2293 143.695 43.888C144.079 43.504 144.271 42.9067 144.271 42.096V35.248C144.271 34.4373 144.079 33.8613 143.695 33.52C143.354 33.136 142.778 32.944 141.967 32.944H129.487V28.016H147.151C147.962 28.016 148.538 27.8453 148.879 27.504C149.263 27.12 149.455 26.5227 149.455 25.712V18.224C149.455 17.4133 149.263 16.8373 148.879 16.496C148.538 16.112 147.962 15.92 147.151 15.92H117.455C116.644 15.92 116.047 16.112 115.663 16.496C115.322 16.8373 115.151 17.4133 115.151 18.224V59.696C115.151 60.5067 115.322 61.104 115.663 61.488C116.047 61.8293 116.644 62 117.455 62H147.151ZM143.695 55.6V56.24H122.127V21.68H143.695V22.32H122.767V38.384H138.511V39.024H122.767V55.6H143.695Z" fill="white"/>
<path d="M371.24 226.608V228.592H396.2V226.608C396.2 225.456 396.093 224.389 395.88 223.408C395.709 222.427 395.475 221.509 395.176 220.656L390.76 210.224C390.291 209.115 389.8 208.197 389.288 207.472C388.776 206.704 387.923 206.32 386.728 206.32H380.456C379.176 206.32 378.28 206.704 377.768 207.472C377.256 208.197 376.787 209.093 376.36 210.16L372.264 220.656C371.965 221.509 371.709 222.427 371.496 223.408C371.325 224.389 371.24 225.456 371.24 226.608ZM381.48 213.36C381.651 212.976 381.821 212.699 381.992 212.528C382.205 212.357 382.44 212.272 382.696 212.272H384.296C384.552 212.272 384.765 212.357 384.936 212.528C385.149 212.699 385.341 212.976 385.512 213.36L388.52 223.088H378.472L381.48 213.36ZM396.2 240.24V229.232H371.24V240.24H370.6V226.608C370.6 225.413 370.685 224.325 370.856 223.344C371.069 222.32 371.347 221.339 371.688 220.4L375.784 209.904C376.253 208.709 376.787 207.707 377.384 206.896C377.981 206.085 379.005 205.68 380.456 205.68H386.728C388.136 205.68 389.117 206.085 389.672 206.896C390.269 207.707 390.824 208.731 391.336 209.968L395.752 220.4C396.093 221.339 396.349 222.32 396.52 223.344C396.733 224.325 396.84 225.413 396.84 226.608V240.24H396.2ZM377.832 243.696V234.736H389.16V243.696C389.16 244.507 389.352 245.104 389.736 245.488C390.163 245.829 390.803 246 391.656 246H401.32C402.131 246 402.707 245.829 403.048 245.488C403.432 245.104 403.624 244.507 403.624 243.696V226.8C403.624 225.52 403.411 224.048 402.984 222.384C402.6 220.72 401.981 218.779 401.128 216.56L395.56 202.032C395.304 201.307 394.899 200.773 394.344 200.432C393.832 200.091 393.171 199.92 392.36 199.92H375.144C374.291 199.92 373.587 200.091 373.032 200.432C372.52 200.773 372.136 201.307 371.88 202.032L366.312 216.56C365.459 218.779 364.819 220.72 364.392 222.384C364.008 224.048 363.816 225.52 363.816 226.8V243.696C363.816 244.507 363.987 245.104 364.328 245.488C364.712 245.829 365.309 246 366.12 246H375.528C376.339 246 376.915 245.829 377.256 245.488C377.64 245.104 377.832 244.507 377.832 243.696ZM369.256 252.976C369.085 253.147 368.808 253.296 368.424 253.424C368.083 253.552 367.699 253.616 367.272 253.616H357.864C356.84 253.616 356.093 253.381 355.624 252.912C355.155 252.443 354.92 251.696 354.92 250.672V233.776C354.92 232.453 355.112 230.96 355.496 229.296C355.923 227.589 356.584 225.584 357.48 223.28L362.984 208.816C363.112 208.432 363.261 208.112 363.432 207.856C363.645 207.557 363.859 207.301 364.072 207.088L364.136 207.024L372.328 200.176C372.669 199.877 373.075 199.664 373.544 199.536C374.013 199.365 374.547 199.28 375.144 199.28H392.36C393.341 199.28 394.131 199.493 394.728 199.92C395.368 200.304 395.837 200.923 396.136 201.776L401.704 216.304C402.6 218.608 403.24 220.613 403.624 222.32C404.051 223.984 404.264 225.477 404.264 226.8V243.696C404.264 244.251 404.179 244.72 404.008 245.104C403.88 245.488 403.667 245.808 403.368 246.064L395.048 252.976C394.877 253.147 394.6 253.296 394.216 253.424C393.875 253.552 393.491 253.616 393.064 253.616H383.4C382.333 253.616 381.544 253.36 381.032 252.848C380.52 252.379 380.264 251.653 380.264 250.672V242.352H378.472V243.696C378.472 244.251 378.387 244.72 378.216 245.104C378.088 245.488 377.875 245.808 377.576 246.064L369.256 252.976ZM421.869 253.616H411.949C410.925 253.616 410.178 253.381 409.709 252.912C409.24 252.443 409.005 251.696 409.005 250.672V209.2C409.005 208.645 409.069 208.176 409.197 207.792C409.368 207.408 409.602 207.088 409.901 206.832L418.157 199.856C418.37 199.685 418.648 199.557 418.989 199.472C419.373 199.344 419.778 199.28 420.205 199.28H439.789C442.818 199.28 445.357 199.6 447.405 200.24C449.453 200.88 451.074 201.776 452.269 202.928C453.464 204.08 454.296 205.467 454.765 207.088C455.277 208.709 455.533 210.48 455.533 212.4V220.592C455.533 222.64 455.234 224.517 454.637 226.224C454.082 227.888 453.101 229.317 451.693 230.512L443.373 237.424C442.306 238.32 440.92 239.067 439.213 239.664C437.549 240.219 435.501 240.539 433.069 240.624V243.696C433.069 244.251 432.984 244.72 432.813 245.104C432.685 245.488 432.472 245.808 432.173 246.064L423.853 252.976C423.682 253.147 423.405 253.296 423.021 253.424C422.68 253.552 422.296 253.616 421.869 253.616ZM430.125 246C430.936 246 431.512 245.829 431.853 245.488C432.237 245.104 432.429 244.507 432.429 243.696V233.072H439.789C445.592 233.072 449.56 231.92 451.693 229.616C453.826 227.312 454.893 224.304 454.893 220.592V212.4C454.893 208.688 453.826 205.68 451.693 203.376C449.56 201.072 445.592 199.92 439.789 199.92H420.205C419.394 199.92 418.797 200.112 418.413 200.496C418.072 200.837 417.901 201.413 417.901 202.224V243.696C417.901 244.507 418.072 245.104 418.413 245.488C418.797 245.829 419.394 246 420.205 246H430.125ZM438.893 227.632H425.709V240.24H425.069V205.68H438.893C440.898 205.68 442.52 205.915 443.757 206.384C445.037 206.811 446.018 207.408 446.701 208.176C447.384 208.944 447.853 209.861 448.109 210.928C448.365 211.995 448.493 213.147 448.493 214.384V219.12C448.493 220.357 448.365 221.509 448.109 222.576C447.853 223.6 447.384 224.496 446.701 225.264C446.018 225.989 445.037 226.565 443.757 226.992C442.52 227.419 440.898 227.632 438.893 227.632ZM425.709 226.992H438.893C440.77 226.992 442.285 226.8 443.437 226.416C444.632 226.032 445.549 225.499 446.189 224.816C446.829 224.091 447.256 223.259 447.469 222.32C447.725 221.339 447.853 220.272 447.853 219.12V214.384C447.853 213.232 447.725 212.165 447.469 211.184C447.256 210.203 446.829 209.349 446.189 208.624C445.549 207.899 444.632 207.344 443.437 206.96C442.285 206.533 440.77 206.32 438.893 206.32H425.709V226.992ZM432.301 211.888H438.061C439.298 211.888 440.109 212.208 440.493 212.848C440.877 213.488 441.069 214.213 441.069 215.024V218.416C441.069 219.227 440.877 219.952 440.493 220.592C440.109 221.232 439.298 221.552 438.061 221.552H432.301V211.888ZM488.252 253.616H460.988C459.964 253.616 459.217 253.381 458.748 252.912C458.278 252.443 458.044 251.696 458.044 250.672V243.056C458.044 242.501 458.108 242.032 458.236 241.648C458.406 241.264 458.641 240.944 458.94 240.688L466.684 234.16V219.888H460.988C459.964 219.888 459.217 219.653 458.748 219.184C458.278 218.715 458.044 217.968 458.044 216.944V209.2C458.044 208.645 458.108 208.176 458.236 207.792C458.406 207.408 458.641 207.088 458.94 206.832L467.196 199.856C467.409 199.685 467.686 199.557 468.028 199.472C468.412 199.344 468.817 199.28 469.244 199.28H496.508C497.532 199.28 498.278 199.515 498.748 199.984C499.217 200.453 499.452 201.2 499.452 202.224V209.968C499.452 210.523 499.366 210.992 499.196 211.376C499.068 211.76 498.854 212.08 498.556 212.336L490.94 218.736V233.136H496.508C497.532 233.136 498.278 233.371 498.748 233.84C499.217 234.309 499.452 235.056 499.452 236.08V243.696C499.452 244.251 499.366 244.72 499.196 245.104C499.068 245.488 498.854 245.808 498.556 246.064L490.236 252.976C490.065 253.147 489.788 253.296 489.404 253.424C489.062 253.552 488.678 253.616 488.252 253.616ZM469.244 246H496.508C497.318 246 497.894 245.829 498.236 245.488C498.62 245.104 498.812 244.507 498.812 243.696V236.08C498.812 235.269 498.62 234.693 498.236 234.352C497.894 233.968 497.318 233.776 496.508 233.776H490.3V212.272H496.508C497.318 212.272 497.894 212.101 498.236 211.76C498.62 211.376 498.812 210.779 498.812 209.968V202.224C498.812 201.413 498.62 200.837 498.236 200.496C497.894 200.112 497.318 199.92 496.508 199.92H469.244C468.433 199.92 467.836 200.112 467.452 200.496C467.11 200.837 466.94 201.413 466.94 202.224V209.968C466.94 210.779 467.11 211.376 467.452 211.76C467.836 212.101 468.433 212.272 469.244 212.272H475.58V233.776H469.244C468.433 233.776 467.836 233.968 467.452 234.352C467.11 234.693 466.94 235.269 466.94 236.08V243.696C466.94 244.507 467.11 245.104 467.452 245.488C467.836 245.829 468.433 246 469.244 246ZM493.052 240.24H472.7V239.6H482.62V206.32H472.7V205.68H493.052V206.32H483.26V239.6H493.052V240.24Z" fill="white"/>
<path d="M59.648 190.232C57.6 190.232 56.1067 189.763 55.168 188.824C54.2293 187.885 53.76 186.392 53.76 184.344V101.4C53.76 100.291 53.888 99.352 54.144 98.584C54.4853 97.816 54.9547 97.176 55.552 96.664L72.064 82.712C72.4907 82.3707 73.0453 82.1147 73.728 81.944C74.496 81.688 75.3067 81.56 76.16 81.56H116.992C125.867 81.56 132.395 83.3093 136.576 86.808C140.757 90.2213 142.848 95.4267 142.848 102.424V108.568C142.848 111.555 142.421 114.115 141.568 116.248C140.8 118.381 139.605 120.088 137.984 121.368L137.6 121.624C142.208 122.648 145.664 124.867 147.968 128.28C150.272 131.608 151.424 136.259 151.424 142.232V154.008C151.424 157.848 150.869 161.176 149.76 163.992C148.651 166.723 146.987 169.027 144.768 170.904L128.256 184.856C126.123 186.648 123.435 187.971 120.192 188.824C116.949 189.763 113.152 190.232 108.8 190.232H59.648ZM125.312 175C133.76 175 139.989 173.293 144 169.88C148.096 166.467 150.144 161.176 150.144 154.008V142.232C150.144 136.003 148.821 131.267 146.176 128.024C143.531 124.781 139.477 122.904 134.016 122.392C136.576 121.283 138.453 119.619 139.648 117.4C140.928 115.096 141.568 112.152 141.568 108.568V102.424C141.568 95.768 139.563 90.8613 135.552 87.704C131.541 84.4613 125.355 82.84 116.992 82.84H76.16C74.5387 82.84 73.344 83.224 72.576 83.992C71.8933 84.6747 71.552 85.8267 71.552 87.448V170.392C71.552 172.013 71.8933 173.208 72.576 173.976C73.344 174.659 74.5387 175 76.16 175H125.312ZM120.192 163.48H85.76V94.36H111.744C115.243 94.36 118.101 94.744 120.32 95.512C122.539 96.1947 124.245 97.176 125.44 98.456C126.635 99.6507 127.445 101.059 127.872 102.68C128.299 104.301 128.512 106.051 128.512 107.928V116.12C128.512 118.68 128.043 121.027 127.104 123.16C126.251 125.293 123.989 126.829 120.32 127.768C123.819 127.768 126.677 128.152 128.896 128.92C131.115 129.603 132.821 130.627 134.016 131.992C135.211 133.272 135.979 134.808 136.32 136.6C136.747 138.392 136.96 140.355 136.96 142.488V150.68C136.96 152.557 136.747 154.307 136.32 155.928C135.893 157.464 135.083 158.787 133.888 159.896C132.779 161.005 131.115 161.901 128.896 162.584C126.677 163.181 123.776 163.48 120.192 163.48ZM111.744 95.64H87.04V127.768H111.744C115.243 127.768 118.016 127.469 120.064 126.872C122.112 126.189 123.648 125.336 124.672 124.312C125.781 123.203 126.464 121.965 126.72 120.6C127.061 119.149 127.232 117.656 127.232 116.12V107.928C127.232 104.515 126.251 101.613 124.288 99.224C122.325 96.8347 118.144 95.64 111.744 95.64ZM100.352 104.6H111.232C112.853 104.6 114.048 105.027 114.816 105.88C115.669 106.733 116.096 108.013 116.096 109.72V113.304C116.096 115.011 115.669 116.291 114.816 117.144C114.048 117.997 112.853 118.424 111.232 118.424H100.352V104.6ZM120.32 129.048H87.04V162.2H120.192C126.592 162.2 130.773 161.176 132.736 159.128C134.699 156.995 135.68 154.179 135.68 150.68V142.488C135.68 138.648 134.699 135.448 132.736 132.888C130.859 130.328 126.72 129.048 120.32 129.048ZM100.352 138.136H116.992C118.613 138.136 119.808 138.563 120.576 139.416C121.429 140.184 121.856 141.421 121.856 143.128V148.12C121.856 149.827 121.429 151.107 120.576 151.96C119.808 152.813 118.613 153.24 116.992 153.24H100.352V138.136ZM232.345 184.088C229.358 186.648 225.177 188.611 219.801 189.976C214.425 191.427 207.513 192.152 199.065 192.152C190.702 192.152 183.833 191.256 178.457 189.464C173.166 187.757 168.985 185.453 165.913 182.552C162.926 179.651 160.836 176.323 159.641 172.568C158.532 168.813 157.977 164.931 157.977 160.92V121.112C157.977 117.187 158.532 113.56 159.641 110.232C160.75 106.819 162.756 103.917 165.657 101.528L182.297 87.704C185.284 85.144 189.422 83.1813 194.713 81.816C200.089 80.3653 207.044 79.64 215.577 79.64C223.94 79.64 230.766 80.3227 236.057 81.688C241.433 83.0533 245.614 84.9733 248.601 87.448C251.673 89.8373 253.764 92.7387 254.873 96.152C255.982 99.48 256.537 103.149 256.537 107.16V150.808C256.537 154.733 255.982 158.36 254.873 161.688C253.764 165.016 251.758 167.875 248.857 170.264L232.345 184.088ZM255.257 150.808V107.16C255.257 103.235 254.66 99.6933 253.465 96.536C252.356 93.2933 250.308 90.52 247.321 88.216C244.42 85.912 240.366 84.12 235.161 82.84C230.041 81.56 223.513 80.92 215.577 80.92C207.641 80.92 201.07 81.56 195.865 82.84C190.66 84.12 186.564 85.912 183.577 88.216C180.676 90.52 178.628 93.2933 177.433 96.536C176.324 99.6933 175.769 103.235 175.769 107.16V150.808C175.769 154.733 176.324 158.317 177.433 161.56C178.628 164.717 180.676 167.448 183.577 169.752C186.564 171.971 190.66 173.72 195.865 175C201.07 176.28 207.641 176.92 215.577 176.92C223.513 176.92 230.041 176.28 235.161 175C240.366 173.72 244.42 171.971 247.321 169.752C250.308 167.448 252.356 164.717 253.465 161.56C254.66 158.317 255.257 154.733 255.257 150.808ZM241.305 147.864C241.305 152.984 239.47 157.165 235.801 160.408C232.132 163.565 225.305 165.144 215.321 165.144C205.337 165.144 198.553 163.565 194.969 160.408C191.385 157.165 189.593 152.984 189.593 147.864V110.104C189.593 104.984 191.385 100.845 194.969 97.688C198.553 94.4453 205.337 92.824 215.321 92.824C225.305 92.824 232.132 94.4453 235.801 97.688C239.47 100.845 241.305 104.984 241.305 110.104V147.864ZM190.873 147.864C190.873 152.643 192.58 156.525 195.993 159.512C199.406 162.413 205.849 163.864 215.321 163.864C224.793 163.864 231.278 162.413 234.777 159.512C238.276 156.525 240.025 152.643 240.025 147.864V110.104C240.025 105.325 238.276 101.485 234.777 98.584C231.278 95.5973 224.793 94.104 215.321 94.104C205.849 94.104 199.406 95.5973 195.993 98.584C192.58 101.485 190.873 105.325 190.873 110.104V147.864ZM204.825 146.2V111.768C204.825 110.147 205.465 108.781 206.745 107.672C208.025 106.477 210.969 105.88 215.577 105.88C220.185 105.88 223.129 106.477 224.409 107.672C225.689 108.781 226.329 110.147 226.329 111.768V146.2C226.329 147.907 225.689 149.357 224.409 150.552C223.129 151.661 220.185 152.216 215.577 152.216C210.969 152.216 208.025 151.661 206.745 150.552C205.465 149.357 204.825 147.907 204.825 146.2ZM206.105 146.2C206.105 147.053 206.276 147.821 206.617 148.504C206.958 149.101 207.598 149.613 208.537 150.04V125.72C208.537 124.867 208.366 124.141 208.025 123.544C207.684 122.861 207.044 122.349 206.105 122.008V146.2ZM314.51 190.232H293.774C291.641 190.232 290.105 189.763 289.166 188.824C288.313 187.885 287.886 186.392 287.886 184.344V168.344L268.558 142.488C266.51 139.757 265.145 137.368 264.462 135.32C263.779 133.272 263.438 130.157 263.438 125.976V101.4C263.438 100.291 263.566 99.352 263.822 98.584C264.163 97.816 264.633 97.176 265.23 96.664L281.742 82.712C282.169 82.3707 282.723 82.1147 283.406 81.944C284.174 81.688 284.985 81.56 285.838 81.56H305.55C307.598 81.56 309.091 82.0293 310.03 82.968C310.969 83.9067 311.438 85.4 311.438 87.448V108.44C311.438 109.208 311.481 109.976 311.566 110.744C311.651 111.512 311.907 112.323 312.334 113.176L313.87 115.352V101.4C313.87 100.291 313.998 99.352 314.254 98.584C314.595 97.816 315.065 97.176 315.662 96.664L332.174 82.712C332.601 82.3707 333.155 82.1147 333.838 81.944C334.606 81.688 335.417 81.56 336.27 81.56H355.342C357.39 81.56 358.883 82.0293 359.822 82.968C360.761 83.9067 361.23 85.4 361.23 87.448V112.024C361.23 116.205 360.889 119.32 360.206 121.368C359.523 123.416 358.158 125.805 356.11 128.536L336.91 154.52V170.392C336.91 171.501 336.739 172.44 336.398 173.208C336.142 173.976 335.715 174.616 335.118 175.128L318.478 188.952C318.137 189.293 317.582 189.592 316.814 189.848C316.131 190.104 315.363 190.232 314.51 190.232ZM331.022 175C332.643 175 333.795 174.659 334.478 173.976C335.246 173.208 335.63 172.013 335.63 170.392V154.136L355.086 127.768C356.963 125.123 358.243 122.819 358.926 120.856C359.609 118.893 359.95 115.949 359.95 112.024V87.448C359.95 85.8267 359.566 84.6747 358.798 83.992C358.115 83.224 356.963 82.84 355.342 82.84H336.27C334.649 82.84 333.454 83.224 332.686 83.992C332.003 84.6747 331.662 85.8267 331.662 87.448V108.44C331.662 109.293 331.619 110.189 331.534 111.128C331.449 112.067 331.107 112.963 330.51 113.816L324.622 123.032C324.195 123.8 323.726 124.355 323.214 124.696C322.787 125.037 322.233 125.208 321.55 125.208H320.27C319.587 125.208 318.99 125.037 318.478 124.696C318.051 124.355 317.625 123.8 317.198 123.032L311.31 113.816C310.713 112.963 310.371 112.067 310.286 111.128C310.201 110.189 310.158 109.293 310.158 108.44V87.448C310.158 85.8267 309.774 84.6747 309.006 83.992C308.323 83.224 307.171 82.84 305.55 82.84H285.838C284.217 82.84 283.022 83.224 282.254 83.992C281.571 84.6747 281.23 85.8267 281.23 87.448V112.024C281.23 115.949 281.529 118.893 282.126 120.856C282.809 122.819 284.131 125.123 286.094 127.768L305.678 154.008V170.392C305.678 172.013 306.019 173.208 306.702 173.976C307.47 174.659 308.665 175 310.286 175H331.022ZM322.19 141.592H321.294V163.48H320.014V141.592H318.734C316.857 141.592 315.15 141.165 313.614 140.312C312.163 139.459 310.755 138.093 309.39 136.216L296.974 118.936C296.035 117.656 295.481 116.163 295.31 114.456C295.139 112.749 295.054 110.957 295.054 109.08V94.36H296.334V109.08C296.334 110.872 296.419 112.579 296.59 114.2C296.761 115.736 297.273 117.144 298.126 118.424L310.542 135.704C311.651 137.411 312.931 138.605 314.382 139.288C315.833 139.971 317.283 140.312 318.734 140.312H322.19C323.811 140.312 325.262 139.971 326.542 139.288C327.907 138.52 329.23 137.325 330.51 135.704L343.31 118.424C344.163 117.315 344.675 115.949 344.846 114.328C345.017 112.621 345.102 110.872 345.102 109.08V94.36H346.382V109.08C346.382 110.957 346.297 112.749 346.126 114.456C346.041 116.077 345.486 117.571 344.462 118.936L331.662 136.216C330.297 138.093 328.846 139.459 327.31 140.312C325.859 141.165 324.153 141.592 322.19 141.592ZM373.094 190.232C371.046 190.232 369.553 189.763 368.614 188.824C367.675 187.885 367.206 186.392 367.206 184.344V169.368C367.206 168.259 367.334 167.32 367.59 166.552C367.931 165.784 368.401 165.144 368.998 164.632L381.798 153.88C377.275 152.515 373.691 150.211 371.046 146.968C368.486 143.64 367.206 138.904 367.206 132.76V119.32C367.206 115.48 367.846 112.067 369.126 109.08C370.406 106.093 372.241 103.576 374.63 101.528L391.27 87.576C393.574 85.6987 396.433 84.248 399.846 83.224C403.259 82.1147 407.142 81.56 411.494 81.56H447.334C449.382 81.56 450.875 82.0293 451.814 82.968C452.753 83.9067 453.222 85.4 453.222 87.448V102.68C453.222 103.789 453.051 104.728 452.71 105.496C452.454 106.264 452.027 106.904 451.43 107.416L439.91 117.016C445.286 118.211 449.595 120.472 452.838 123.8C456.166 127.043 457.83 132.12 457.83 139.032V152.472C457.83 156.312 457.19 159.725 455.91 162.712C454.63 165.699 452.753 168.216 450.278 170.264L433.766 184.088C431.377 186.051 428.475 187.544 425.062 188.568C421.649 189.677 417.809 190.232 413.542 190.232H373.094ZM430.054 175C438.246 175 444.689 173.08 449.382 169.24C454.161 165.315 456.55 159.725 456.55 152.472V139.032C456.55 131.864 454.715 126.744 451.046 123.672C447.377 120.6 442.555 118.637 436.582 117.784L417.51 115.224C416.401 115.139 415.547 114.712 414.95 113.944C414.353 113.176 414.054 112.237 414.054 111.128C414.054 110.019 414.353 109.123 414.95 108.44C415.547 107.672 416.401 107.288 417.51 107.288H447.334C448.955 107.288 450.107 106.947 450.79 106.264C451.558 105.496 451.942 104.301 451.942 102.68V87.448C451.942 85.8267 451.558 84.6747 450.79 83.992C450.107 83.224 448.955 82.84 447.334 82.84H411.494C403.217 82.84 396.731 84.8027 392.038 88.728C387.345 92.568 384.998 98.1147 384.998 105.368V118.808C384.998 125.976 386.79 131.096 390.374 134.168C394.043 137.24 398.865 139.203 404.838 140.056L424.038 142.744C425.147 142.829 425.958 143.213 426.47 143.896C427.067 144.579 427.366 145.645 427.366 147.096C427.366 148.12 427.067 149.016 426.47 149.784C425.958 150.467 425.147 150.808 424.038 150.808H389.606C387.985 150.808 386.79 151.192 386.022 151.96C385.339 152.643 384.998 153.795 384.998 155.416V170.392C384.998 172.013 385.339 173.208 386.022 173.976C386.79 174.659 387.985 175 389.606 175H430.054ZM440.422 94.36V95.64H412.006C408.422 95.64 405.563 96.6213 403.43 98.584C401.297 100.547 400.23 103.021 400.23 106.008V116.504C400.23 119.491 400.827 121.581 402.022 122.776C403.217 123.971 404.795 124.739 406.758 125.08L433.766 130.584C436.326 131.096 438.417 132.205 440.038 133.912C441.745 135.619 442.598 138.691 442.598 143.128V150.552C442.598 154.307 441.318 157.421 438.758 159.896C436.198 162.285 432.742 163.48 428.39 163.48H396.518V162.2H428.39C432.315 162.2 435.43 161.133 437.734 159C440.123 156.781 441.318 153.965 441.318 150.552V143.128C441.318 139.117 440.593 136.387 439.142 134.936C437.777 133.4 435.899 132.376 433.51 131.864L406.502 126.36C404.283 125.933 402.449 125.08 400.998 123.8C399.633 122.435 398.95 120.003 398.95 116.504V106.008C398.95 102.595 400.145 99.8213 402.534 97.688C404.923 95.4693 408.081 94.36 412.006 94.36H440.422Z" fill="white"/>
</svg>
